<svg width="24" height="24" viewBox="0 0 24 24" aria-label="TikTok" fill="currentColor" xmlns="http://www.w3.org/2000/svg">
  <path d="M12.5 3c.29 1.95 1.44 3.62 3.19 4.55 1.02.54 2.2.79 3.31.72v2.48c-1.43-.05-2.86-.4-4.14-1.02-.49-.24-.95-.52-1.37-.84v6.4c0 2.92-2.37 5.28-5.3 5.28-2.26 0-4.25-1.46-4.96-3.6-.22-.67-.29-1.38-.22-2.08.22-2.21 1.79-4.08 3.96-4.64.58-.15 1.2-.19 1.8-.13v2.64c-.25-.05-.51-.05-.76 0-1.15.18-2.06 1.11-2.25 2.27-.03.19-.03.39 0 .58.18 1.19 1.23 2.08 2.43 2.08 1.37 0 2.48-1.11 2.48-2.48V3h2.53z"/>
</svg>
